P3
# CREATOR: GIMP PNM Filter Version 1.1
24 24
255
0
0
0
0
0
0
0
0
0
0
0
0
0
0
0
48
48
48
48
48
48
0
0
0
0
0
0
0
0
0
0
0
0
0
0
0
0
0
0
0
0
0
0
0
0
0
0
0
0
0
0
0
0
0
0
0
0
0
0
0
0
0
0
0
0
0
0
0
0
0
0
0
0
0
0
0
0
0
0
0
0
0
0
0
0
0
0
48
48
48
48
48
48
48
48
48
0
0
0
0
0
0
0
0
0
0
0
0
0
0
0
0
0
0
0
0
0
0
0
0
0
0
0
0
0
0
0
0
0
0
0
0
0
0
0
0
0
0
0
0
0
0
0
0
48
48
48
48
48
48
48
48
48
0
0
0
0
0
0
0
0
0
48
48
48
48
48
48
0
0
0
0
0
0
0
0
0
0
0
0
0
0
0
0
0
0
0
0
0
0
0
0
0
0
0
0
0
0
0
0
0
0
0
0
0
0
0
0
0
0
0
0
0
0
0
0
0
0
0
48
48
48
48
48
48
48
48
48
0
0
0
0
0
0
0
0
0
48
48
48
0
0
0
0
0
0
0
0
0
0
0
0
0
0
0
0
0
0
0
0
0
0
0
0
0
0
0
0
0
0
0
0
0
0
0
0
0
0
0
0
0
0
0
0
0
0
0
0
0
0
0
0
0
0
0
0
0
0
0
0
48
48
48
0
0
0
0
0
0
48
48
48
0
0
0
0
0
0
0
0
0
0
0
0
64
64
64
120
123
113
0
0
0
0
0
0
0
0
0
0
0
0
0
0
0
0
0
0
0
0
0
0
0
0
0
0
0
0
0
0
0
0
0
0
0
0
0
0
0
0
0
0
0
0
0
48
48
48
0
0
0
0
0
0
48
48
48
0
0
0
0
0
0
0
0
0
120
123
113
120
123
113
0
0
0
0
0
0
0
0
0
0
0
0
0
0
0
0
0
0
0
0
0
0
0
0
0
0
0
0
0
0
0
0
0
0
0
0
0
0
0
0
0
0
0
0
0
48
48
48
0
0
0
0
0
0
48
48
48
0
0
0
0
0
0
64
64
64
120
123
113
120
123
113
0
0
0
0
0
0
0
0
0
0
0
0
0
0
0
0
0
0
0
0
0
0
0
0
0
0
0
0
0
0
0
0
0
0
0
0
0
0
0
0
0
0
0
0
0
0
0
0
48
48
48
0
0
0
48
48
48
0
0
0
0
0
0
120
123
113
120
123
113
120
123
113
0
0
0
0
0
0
0
0
0
0
0
0
0
0
0
0
0
0
0
0
0
0
0
0
0
0
0
0
0
0
0
0
0
0
0
0
0
0
0
0
0
0
0
0
0
0
0
0
48
48
48
0
0
0
48
48
48
0
0
0
0
0
0
120
123
113
120
123
113
120
123
113
0
0
0
0
0
0
0
0
0
0
0
0
0
0
0
255
255
255
255
255
255
167
167
167
64
64
64
0
0
0
0
0
0
0
0
0
0
0
0
0
0
0
0
0
0
0
0
0
48
48
48
0
0
0
64
64
64
0
0
0
64
64
64
120
123
113
120
123
113
120
123
113
0
0
0
0
0
0
0
0
0
255
255
255
255
255
255
167
167
167
167
167
167
120
123
113
64
64
64
0
0
0
0
0
0
0
0
0
0
0
0
0
0
0
0
0
0
93
37
206
116
78
194
116
78
194
64
64
64
116
78
194
64
64
64
64
64
64
120
123
113
0
0
0
0
0
0
0
0
0
120
123
113
120
123
113
167
167
167
167
167
167
64
64
64
64
64
64
64
64
64
0
0
0
0
0
0
0
0
0
0
0
0
0
0
0
253
136
117
116
78
194
116
78
194
116
78
194
93
37
206
93
37
206
116
78
194
64
64
64
64
64
64
0
0
0
0
0
0
255
255
255
64
64
64
64
64
64
64
64
64
64
64
64
167
167
167
167
167
167
64
64
64
0
0
0
0
0
0
0
0
0
0
0
0
0
0
0
224
79
55
116
78
194
116
78
194
93
37
206
253
136
117
253
136
117
93
37
206
116
78
194
64
64
64
64
64
64
255
255
255
167
167
167
167
167
167
64
64
64
167
167
167
167
167
167
167
167
167
120
123
113
64
64
64
0
0
0
0
0
0
0
0
0
0
0
0
0
0
0
93
37
206
80
171
168
80
171
168
224
79
55
253
136
117
253
136
117
224
79
55
93
37
206
64
64
64
64
64
64
255
255
255
167
167
167
64
64
64
64
64
64
167
167
167
167
167
167
64
64
64
64
64
64
0
0
0
0
0
0
0
0
0
0
0
0
0
0
0
0
0
0
255
255
255
78
194
190
78
194
190
224
79
55
224
79
55
224
79
55
224
79
55
93
37
206
64
64
64
255
255
255
167
167
167
64
64
64
120
123
113
167
167
167
64
64
64
167
167
167
64
64
64
0
0
0
0
0
0
0
0
0
0
0
0
0
0
0
0
0
0
0
0
0
0
0
0
64
64
64
255
255
255
64
64
64
224
79
55
224
79
55
64
64
64
93
37
206
64
64
64
167
167
167
64
64
64
64
64
64
167
167
167
167
167
167
167
167
167
64
64
64
64
64
64
0
0
0
0
0
0
0
0
0
0
0
0
0
0
0
0
0
0
0
0
0
0
0
0
0
0
0
0
0
0
93
37
206
64
64
64
64
64
64
93
37
206
64
64
64
167
167
167
167
167
167
167
167
167
167
167
167
64
64
64
167
167
167
167
167
167
64
64
64
0
0
0
0
0
0
0
0
0
0
0
0
0
0
0
0
0
0
0
0
0
0
0
0
0
0
0
0
0
0
0
0
0
0
0
0
93
37
206
93
37
206
93
37
206
93
37
206
64
64
64
64
64
64
64
64
64
167
167
167
167
167
167
120
123
113
64
64
64
64
64
64
0
0
0
0
0
0
0
0
0
0
0
0
0
0
0
0
0
0
0
0
0
0
0
0
0
0
0
0
0
0
0
0
0
0
0
0
78
194
190
93
37
206
93
37
206
93
37
206
93
37
206
64
64
64
167
167
167
64
64
64
64
64
64
64
64
64
0
0
0
0
0
0
0
0
0
0
0
0
0
0
0
0
0
0
0
0
0
0
0
0
0
0
0
0
0
0
0
0
0
0
0
0
0
0
0
0
0
0
0
0
0
93
37
206
78
194
190
93
37
206
64
64
64
64
64
64
64
64
64
167
167
167
167
167
167
0
0
0
0
0
0
0
0
0
0
0
0
0
0
0
0
0
0
0
0
0
0
0
0
0
0
0
0
0
0
0
0
0
0
0
0
0
0
0
0
0
0
0
0
0
0
0
0
0
0
0
64
64
64
64
64
64
64
64
64
78
194
190
64
64
64
0
0
0
0
0
0
0
0
0
0
0
0
0
0
0
0
0
0
0
0
0
0
0
0
0
0
0
0
0
0
0
0
0
0
0
0
0
0
0
0
0
0
0
0
0
0
0
0
0
0
0
0
0
0
0
0
0
80
171
168
0
0
0
0
0
0
78
194
190
0
0
0
0
0
0
0
0
0
0
0
0
0
0
0
0
0
0
0
0
0
0
0
0
0
0
0
0
0
0
0
0
0
0
0
0
0
0
0
0
0
0
0
0
0
0
0
0
0
0
0
0
0
0
0
0
0
0
0
0
0
0
0
0
0
0
0
0
0
78
194
190
0
0
0
0
0
0
0
0
0
0
0
0
0
0
0
0
0
0
0
0
0
0
0
0
0
0
0
0
0
0
0
0
0
0
0
0
0
0
0
0
0
0
0
0
0
0
0
0
0
0
0
0
0
0
0
0
0
0
0
0
0
0
0
0
0
0
0
0
0
0
0
0
0
0
0
0
0
0
0
0
0
0
0
0
0
0
0
0
0
0
0
0
0
0
0
0
0
0
0
0
0
0
